:SAMPLES-PER-SECOND 30
:FULLY-SPECIFIED
:DEGREES
310
root  32.7905 38.8025 -32.4651 -31.2317 83.7238 -31.3769
RightUpLeg  -11.0331 -12.5976 3.84395
RightLeg  30.3851 -1.59438 -1.25857
RightFoot  -15.4289 -0.218915 -3.39282
RightToes  0.000482159 0.542163 -0.142577
Spine  30.8609 -2.39513 10.4543
Spine1  15.6565 1.03237 -2.31925
HEad  0.732022 0.291331 -5.54466
LeftShoulder1  10.311 -16.1038 -45.8543
LeftArm  -9.21206 -3.20642 -21.1433
LeftForeArm  18.6038 -20.0653 -4.0614
LeftHand  -0.25398 0.0180481 5.50724
RightShoulder  5.54172 11.6882 30.5149
RightArm  -2.43728 26.1997 31.4982
RightForeArm  -5.78442 19.3099 5.78285
RightHand  -1.32747 3.4847 -17.5459
LeftUpLeg  -21.2488 7.46358 5.94818
LeftLeg  -3.58403 28.2341 -8.97
LeftFoot  4.73499 0.473654 -3.57498
LeftToes  1.06247e-005 4.65855e-005 -8.18501e-006
311
root  33.833 38.4199 -32.5705 -30.3985 82.4341 -30.6987
RightUpLeg  -12.8849 -11.6618 3.87403
RightLeg  36.7128 -1.69008 -1.6147
RightFoot  -15.6956 -0.128213 -0.327095
RightToes  0.000482159 0.542163 -0.142577
Spine  32.5887 -2.23975 9.40503
Spine1  16.407 1.30832 -2.34555
HEad  -0.677269 1.39555 -5.66828
LeftShoulder1  10.5119 -16.518 -45.7756
LeftArm  -10.5758 -4.84415 -19.9895
LeftForeArm  18.3486 -18.1455 -4.32449
LeftHand  -0.25398 0.0180481 5.50724
RightShoulder  5.5592 12.0284 29.8163
RightArm  -4.97673 31.3792 30.63
RightForeArm  -3.05132 15.7604 6.79805
RightHand  -1.22264 3.07774 -16.9447
LeftUpLeg  -22.7877 8.92082 5.88394
LeftLeg  -0.721501 28.0408 -7.7992
LeftFoot  8.10526 -0.252033 1.03459
LeftToes  1.06247e-005 4.65855e-005 -8.18501e-006
312
root  34.7406 37.9861 -32.6795 -25.3672 81.9523 -26.0753
RightUpLeg  -18.1017 -11.6439 2.88309
RightLeg  47.3237 -1.31382 -1.86898
RightFoot  -11.0713 -0.0917197 3.16573
RightToes  0.000482159 0.542163 -0.142577
Spine  35.0087 -1.7715 7.14528
Spine1  16.1089 1.02141 -1.47296
HEad  -2.49588 2.50806 -5.56006
LeftShoulder1  10.7155 -16.9804 -45.6
LeftArm  -12.3746 -7.00115 -18.6948
LeftForeArm  18.436 -16.6199 -4.50815
LeftHand  -0.25398 0.0180481 5.50724
RightShoulder  5.5044 12.2745 28.8901
RightArm  -8.6241 36.3774 30.008
RightForeArm  -0.17922 12.2956 7.61786
RightHand  -1.21291 3.07045 -16.8244
LeftUpLeg  -26.7418 13.9866 2.65233
LeftLeg  6.95435 22.7504 -4.20675
LeftFoot  11.8162 -1.74642 8.20998
LeftToes  1.06247e-005 4.65855e-005 -8.18501e-006
313
root  35.465 37.5826 -32.7887 -15.2753 82.479 -16.5444
RightUpLeg  -25.4344 -12.4223 0.82736
RightLeg  58.7926 -1.03716 -2.34952
RightFoot  -2.50712 -0.359272 4.59356
RightToes  0.000482159 0.542163 -0.142577
Spine  38.2908 -1.44359 4.8172
Spine1  15.3026 0.550679 -1.12852
HEad  -5.18526 2.61099 -5.36843
LeftShoulder1  10.8788 -17.6362 -44.8256
LeftArm  -14.9278 -10.8687 -17.6095
LeftForeArm  19.1099 -14.7635 -4.62723
LeftHand  -0.25398 0.0180481 5.50724
RightShoulder  5.32564 12.3465 27.5664
RightArm  -12.6556 40.8311 29.4229
RightForeArm  1.00208 9.69293 7.72195
RightHand  -1.32759 3.69016 -17.1723
LeftUpLeg  -32.7225 25.155 -6.65048
LeftLeg  14.3783 9.18133 0.0883455
LeftFoot  12.2665 -2.67051 12.3997
LeftToes  1.06247e-005 4.65855e-005 -8.18501e-006
314
root  36.0248 37.3515 -32.8945 -3.31458 83.5626 -5.46259
RightUpLeg  -32.4734 -13.6041 -1.08893
RightLeg  65.9638 -0.983552 -3.08283
RightFoot  4.14711 -0.49984 3.89973
RightToes  0.000482159 0.542163 -0.142577
Spine  42.0863 -1.77731 3.98645
Spine1  15.1707 0.477239 -2.36302
HEad  -9.18676 1.18494 -5.13279
LeftShoulder1  10.9633 -18.6273 -43.0536
LeftArm  -18.2213 -17.1363 -17.1272
LeftForeArm  19.856 -11.9022 -4.67789
LeftHand  -0.25398 0.0180481 5.50724
RightShoulder  4.99467 12.1402 25.8301
RightArm  -17.0165 44.6755 28.172
RightForeArm  -0.040071 8.18259 7.23529
RightHand  -1.42771 4.24863 -17.4162
LeftUpLeg  -37.2744 29.3809 -13.1273
LeftLeg  18.7171 2.87415 1.6671
LeftFoot  9.69253 -2.40385 12.553
LeftToes  1.06247e-005 4.65855e-005 -8.18501e-006
315
root  36.5092 37.3471 -33.0003 0.312759 84.3708 -3.36325
RightUpLeg  -37.9538 -14.3618 -1.15858
RightLeg  66.3415 -1.29362 -3.9027
RightFoot  5.3985 -0.351313 2.60933
RightToes  0.000482159 0.542163 -0.142577
Spine  45.9274 -2.66609 5.42467
Spine1  15.5403 1.0152 -4.23398
HEad  -14.2201 -1.03371 -4.69349
LeftShoulder1  10.9434 -19.8339 -40.5611
LeftArm  -21.5867 -24.7971 -17.1848
LeftForeArm  19.7553 -8.90089 -4.35673
LeftHand  -0.25398 0.0180481 5.50724
RightShoulder  4.54786 11.7542 23.609
RightArm  -21.4849 48.0928 25.9017
RightForeArm  -2.15444 7.05529 6.57285
RightHand  -1.35741 4.04783 -16.9098
LeftUpLeg  -39.1228 29.4908 -14.6093
LeftLeg  20.2979 1.94604 1.13977
LeftFoot  7.7462 -2.05503 11.9028
LeftToes  1.06247e-005 4.65855e-005 -8.18501e-006
316
root  36.9774 37.4596 -33.0742 -7.70432 84.6293 -13.547
RightUpLeg  -41.6986 -13.7347 0.223822
RightLeg  60.1569 -2.1315 -4.51046
RightFoot  3.29121 -0.329405 2.7788
RightToes  0.000482159 0.542163 -0.142577
Spine  49.7024 -3.51324 7.56733
Spine1  15.5846 1.80178 -5.4849
HEad  -19.3509 -2.82761 -4.29589
LeftShoulder1  10.8315 -20.9148 -38.1246
LeftArm  -24.9633 -32.2971 -16.8848
LeftForeArm  19.0197 -7.13853 -3.64525
LeftHand  -0.25398 0.0180481 5.50724
RightShoulder  4.10369 11.689 20.6555
RightArm  -25.6447 51.3428 22.5958
RightForeArm  -3.57809 5.36389 5.97441
RightHand  -1.14426 3.31622 -15.4653
LeftUpLeg  -41.3471 30.2611 -15.4652
LeftLeg  20.5981 0.483499 0.532334
LeftFoot  7.54076 -2.10255 12.3151
LeftToes  1.06247e-005 4.65855e-005 -8.18501e-006
317
root  37.4662 37.5603 -33.0749 -18.2489 84.6655 -26.7229
RightUpLeg  -43.9591 -11.7729 1.31275
RightLeg  49.3294 -3.32043 -4.48787
RightFoot  1.05815 -0.513304 4.78253
RightToes  0.000482159 0.542163 -0.142577
Spine  53.2116 -4.17735 8.8626
Spine1  15.4339 2.42361 -6.13693
HEad  -23.6282 -3.90937 -4.21835
LeftShoulder1  10.6534 -21.8123 -35.9037
LeftArm  -28.9871 -39.0075 -15.3665
LeftForeArm  18.6004 -6.61816 -2.89053
LeftHand  -0.25398 0.0180481 5.50724
RightShoulder  3.75534 12.3309 17.0958
RightArm  -29.8432 54.3597 17.9692
RightForeArm  -3.6476 3.05638 5.43921
RightHand  -0.929455 2.75271 -13.4744
LeftUpLeg  -44.1105 29.8893 -15.7208
LeftLeg  21.2931 -0.0139289 0.327121
LeftFoot  7.26674 -2.13365 12.694
LeftToes  1.06247e-005 4.65855e-005 -8.18501e-006
318
root  38.0151 37.5573 -32.9715 -27.007 85.2898 -38.5897
RightUpLeg  -45.3898 -9.65672 1.32355
RightLeg  36.5996 -3.91716 -3.41951
RightFoot  0.666334 -0.659481 6.2793
RightToes  0.000482159 0.542163 -0.142577
Spine  56.49 -4.98344 9.57407
Spine1  14.5509 2.89911 -7.07436
HEad  -26.2754 -4.92273 -3.70229
LeftShoulder1  10.3681 -23.0231 -32.9367
LeftArm  -33.1125 -44.4756 -12.9584
LeftForeArm  17.9735 -6.3464 -2.22942
LeftHand  -0.25398 0.0180481 5.50724
RightShoulder  3.55866 13.2008 14.4455
RightArm  -34.3345 56.2674 11.676
RightForeArm  -3.51069 1.13785 5.09221
RightHand  -0.761967 2.47208 -11.4734
LeftUpLeg  -47.462 28.3204 -16.1864
LeftLeg  22.8347 -0.0764249 0.299869
LeftFoot  6.13513 -1.95927 12.4492
LeftToes  1.06247e-005 4.65855e-005 -8.18501e-006
319
root  38.6196 37.3807 -32.7345 -42.2323 86.8023 -57.3218
RightUpLeg  -47.1372 -8.6542 0.703113
RightLeg  26.1232 -2.75553 -1.70662
RightFoot  3.06524 -0.746227 6.0958
RightToes  0.000482159 0.542163 -0.142577
Spine  58.4006 -5.54051 10.0921
Spine1  14.5009 3.1751 -7.27744
HEad  -28.595 -6.22004 -2.50772
LeftShoulder1  10.1495 -24.8657 -29.5461
LeftArm  -37.932 -49.6258 -9.42201
LeftForeArm  16.4891 -5.5702 -1.52064
LeftHand  -0.25398 0.0180481 5.50724
RightShoulder  3.39726 13.8209 12.5775
RightArm  -40.0456 57.0762 3.79457
RightForeArm  -4.25863 0.0566443 4.7363
RightHand  -0.609866 2.17384 -9.57115
LeftUpLeg  -51.5745 26.2551 -17.5608
LeftLeg  25.2208 -0.536055 0.0625974
LeftFoot  5.00956 -1.8388 12.5351
LeftToes  1.06247e-005 4.65855e-005 -8.18501e-006
320
root  39.2093 37.071 -32.3925 -82.8426 88.0179 -101.371
RightUpLeg  -50.4745 -9.24133 0.70303
RightLeg  22.547 -0.354046 -0.346207
RightFoot  6.80945 -0.633219 4.28216
RightToes  0.000482159 0.542163 -0.142577
Spine  60.8439 -5.88239 10.5305
Spine1  12.566 2.95271 -6.57337
HEad  -30.3173 -7.16287 -1.05323
LeftShoulder1  10.1497 -26.5926 -27.4046
LeftArm  -43.0244 -53.8294 -3.89845
LeftForeArm  13.7101 -4.45364 -1.16896
LeftHand  -0.25398 0.0180481 5.50724
RightShoulder  3.35794 14.4329 11.5934
RightArm  -44.662 56.6751 -3.29855
RightForeArm  -5.39784 -0.374084 4.55912
RightHand  -0.489306 2.03537 -7.87052
LeftUpLeg  -55.9521 24.1074 -19.2365
LeftLeg  28.1923 -1.20023 -0.351711
LeftFoot  4.1042 -1.81043 13.1061
LeftToes  1.06247e-005 4.65855e-005 -8.18501e-006
321
root  39.7452 36.7063 -32.0256 -130.632 87.2101 -152.068
RightUpLeg  -55.1778 -10.5832 1.88403
RightLeg  25.8684 1.15214 0.372696
RightFoot  8.5818 -0.213269 1.51525
RightToes  0.000482159 0.542163 -0.142577
Spine  63.4807 -6.20022 11.1923
Spine1  10.5906 2.7458 -5.76647
HEad  -32.4635 -8.0232 0.15924
LeftShoulder1  10.1643 -28.0752 -25.7743
LeftArm  -49.8179 -57.5936 4.05566
LeftForeArm  10.0617 -3.10526 -0.8885
LeftHand  -0.25398 0.0180481 5.50724
RightShoulder  3.29443 15.0549 10.5155
RightArm  -49.1691 56.0116 -9.86166
RightForeArm  -6.57097 -0.774261 4.28333
RightHand  -0.437506 2.59785 -6.61777
LeftUpLeg  -59.9788 22.1728 -20.0468
LeftLeg  31.6353 -1.52033 -0.655512
LeftFoot  2.54497 -1.63445 13.2211
LeftToes  1.06247e-005 4.65855e-005 -8.18501e-006
322
root  40.2716 36.339 -31.686 -136.438 85.7919 -160.47
RightUpLeg  -59.7915 -11.4344 3.50441
RightLeg  31.0582 0.814172 0.275722
RightFoot  7.19354 0.108671 -0.364315
RightToes  0.000482159 0.542163 -0.142577
Spine  66.3917 -6.45752 11.6075
Spine1  8.59063 2.94173 -5.50665
HEad  -34.5932 -8.66183 0.978539
LeftShoulder1  10.109 -29.2136 -24.4021
LeftArm  -58.2469 -60.1379 14.1333
LeftForeArm  6.32821 -2.16395 -0.646449
LeftHand  -0.25398 0.0180481 5.50724
RightShoulder  3.25633 15.8025 9.52254
RightArm  -53.7563 55.3789 -16.0656
RightForeArm  -8.72837 -1.21 3.98095
RightHand  -0.436644 3.67423 -5.90387
LeftUpLeg  -63.7922 20.8028 -19.9868
LeftLeg  35.236 -1.58418 -0.838501
LeftFoot  0.440771 -1.31681 12.6762
LeftToes  1.06247e-005 4.65855e-005 -8.18501e-006
